<svg width="198" height="49" viewBox="0 0 198 49" fill="none" xmlns="http://www.w3.org/2000/svg">
<path d="M0.753926 38.3918L-0.246009 38.4032L-0.234554 39.4031L0.765381 39.3917L0.753926 38.3918ZM0.354042 3.48496L0.342587 2.48502L-0.657347 2.49648L-0.645892 3.49641L0.354042 3.48496ZM20.3199 5.35296L19.828 6.22362L19.8311 6.22535L20.3199 5.35296ZM25.9279 11.2721L25.0362 11.7248L25.037 11.7264L25.9279 11.2721ZM26.125 29.9699L27.026 30.4037L27.0268 30.4021L26.125 29.9699ZM20.5354 36.0684L21.0368 36.9337L21.0398 36.9319L20.5354 36.0684ZM4.93796 34.5936L3.93803 34.605L3.94949 35.605L4.94942 35.5935L4.93796 34.5936ZM22.4059 13.341L21.4987 13.7617L21.4996 13.7636L22.4059 13.341ZM18.2273 8.68397L17.721 9.54638L17.725 9.54868L18.2273 8.68397ZM4.62399 7.18629L4.61254 6.18635L3.6126 6.19781L3.62406 7.19774L4.62399 7.18629ZM11.5145 37.2684L0.742471 37.3918L0.765381 39.3917L11.5374 39.2683L11.5145 37.2684ZM1.75386 38.3803L1.35398 3.4735L-0.645892 3.49641L-0.246009 38.4032L1.75386 38.3803ZM0.365497 4.48489L11.6148 4.35602L11.5918 2.35615L0.342587 2.48502L0.365497 4.48489ZM11.6148 4.35602C14.8626 4.31882 17.5865 4.9572 19.828 6.22361L20.8118 4.48231C18.2035 3.00864 15.1163 2.31578 11.5918 2.35615L11.6148 4.35602ZM19.8311 6.22535C22.0752 7.48274 23.808 9.3059 25.0362 11.7248L26.8195 10.8193C25.4201 8.06344 23.4143 5.94053 20.8087 4.48057L19.8311 6.22535ZM25.037 11.7264C26.2655 14.1352 26.9205 17.0708 26.9606 20.5677L28.9604 20.5448C28.9177 16.8149 28.2177 13.561 26.8187 10.8178L25.037 11.7264ZM26.9606 20.5677C27.0009 24.0867 26.4081 27.0658 25.2233 29.5376L27.0268 30.4021C28.3725 27.5946 29.0034 24.298 28.9604 20.5448L26.9606 20.5677ZM25.224 29.5361C24.0429 31.9893 22.3157 33.8705 20.0311 35.2049L21.0398 36.9319C23.6771 35.3915 25.6763 33.2071 27.026 30.4037L25.224 29.5361ZM20.0341 35.2032C17.7544 36.524 14.9294 37.2293 11.5145 37.2684L11.5374 39.2683C15.2129 39.2262 18.3942 38.4648 21.0368 36.9337L20.0341 35.2032ZM4.94942 35.5935L11.2217 35.5217L11.1988 33.5218L4.92651 33.5936L4.94942 35.5935ZM11.2217 35.5217C14.2318 35.4872 16.8051 34.8772 18.8828 33.6258L17.8508 31.9126C16.1588 32.9317 13.9611 33.4901 11.1988 33.5218L11.2217 35.5217ZM18.8828 33.6258C20.9494 32.381 22.483 30.6186 23.4719 28.3674L21.6408 27.563C20.8134 29.4465 19.5539 30.8868 17.8508 31.9126L18.8828 33.6258ZM23.4719 28.3674C24.4501 26.1407 24.9036 23.5391 24.8698 20.5916L22.8699 20.6145C22.9012 23.3485 22.479 25.655 21.6408 27.563L23.4719 28.3674ZM24.8698 20.5916C24.8363 17.6675 24.3295 15.0997 23.3122 12.9183L21.4996 13.7636C22.3696 15.6291 22.8389 17.9026 22.8699 20.6145L24.8698 20.5916ZM23.313 12.9202C22.2878 10.7099 20.7584 8.99775 18.7295 7.81926L17.725 9.54868C19.3799 10.51 20.6363 11.9025 21.4987 13.7617L23.313 12.9202ZM18.7335 7.82156C16.6967 6.62603 14.2215 6.07627 11.3621 6.10903L11.385 8.1089C13.9798 8.07917 16.0737 8.57942 17.7211 9.54638L18.7335 7.82156ZM11.3621 6.10903L4.61254 6.18635L4.63545 8.18622L11.385 8.1089L11.3621 6.10903ZM3.62406 7.19774L3.93803 34.605L5.9379 34.5821L5.62393 7.17483L3.62406 7.19774ZM39.1419 36.8269L38.6255 37.6833L38.6318 37.687L39.1419 36.8269ZM34.8781 32.1709L33.9827 32.6162L33.9857 32.6223L34.8781 32.1709ZM34.716 18.0241L33.8098 17.6012L33.8088 17.6034L34.716 18.0241ZM38.7857 13.1704L39.3412 14.0019L39.3425 14.001L38.7857 13.1704ZM49.0172 11.9963L49.3299 11.0464L49.3299 11.0464L49.0172 11.9963ZM52.6731 14.1704L51.9975 14.9078L52.0016 14.9115L52.6731 14.1704ZM55.3269 18.163L56.2551 17.7908L56.2551 17.7908L55.3269 18.163ZM56.3887 26.0264L56.4001 27.0263L57.4 27.0149L57.3886 26.0149L56.3887 26.0264ZM36.2082 26.2576L35.2082 26.269L35.2197 27.2689L36.2196 27.2575L36.2082 26.2576ZM36.1683 22.7805L36.1569 21.7806L35.1569 21.792L35.1684 22.792L36.1683 22.7805ZM52.2582 22.5962L52.2696 23.5961L53.2696 23.5847L53.2581 22.5847L52.2582 22.5962ZM51.3266 18.6521L50.4373 19.1095L50.4409 19.1164L51.3266 18.6521ZM48.8067 15.9364L48.2848 16.7895L48.2889 16.7919L48.8067 15.9364ZM40.8662 16.2149L41.4359 17.0367L41.4377 17.0355L40.8662 16.2149ZM38.2253 19.3135L37.3243 18.8799L37.3243 18.8799L38.2253 19.3135ZM38.4412 30.7152L37.5504 31.1697L37.555 31.1786L38.4412 30.7152ZM41.3574 33.8013L40.8635 34.6709L40.8695 34.6742L41.3574 33.8013ZM48.506 34.3331L48.8444 35.2742L48.8516 35.2715L48.506 34.3331ZM50.7232 32.944L51.4253 33.6561L51.4319 33.6495L50.7232 32.944ZM52.1458 30.6435L52.405 29.6776L51.5181 29.4396L51.2055 30.3031L52.1458 30.6435ZM56.0444 31.6898L57.0028 31.9752L57.2961 30.9903L56.3036 30.724L56.0444 31.6898ZM54.0219 35.1905L54.7451 35.8811L54.7491 35.8769L54.0219 35.1905ZM50.4691 37.5495L50.8383 38.4789L50.8447 38.4763L50.4691 37.5495ZM45.6776 37.4225C43.3054 37.4497 41.3103 36.9504 39.6521 35.9668L38.6318 37.687C40.6579 38.8887 43.0275 39.453 45.7005 39.4224L45.6776 37.4225ZM39.6583 35.9706C37.9962 34.9683 36.7015 33.5603 35.7704 31.7195L33.9857 32.6223C35.0779 34.7813 36.6258 36.4774 38.6255 37.6833L39.6583 35.9706ZM35.7735 31.7256C34.8519 29.8728 34.3607 27.6798 34.3314 25.1199L32.3315 25.1428C32.3636 27.9462 32.9035 30.4463 33.9827 32.6162L35.7735 31.7256ZM34.3314 25.1199C34.3021 22.5604 34.7427 20.3434 35.6232 18.4448L33.8088 17.6034C32.7818 19.8178 32.2994 22.339 32.3315 25.1428L34.3314 25.1199ZM35.6222 18.447C36.5167 16.53 37.7581 15.0595 39.3412 14.0019L38.2302 12.3388C36.3171 13.6169 34.8453 15.3822 33.8098 17.6012L35.6222 18.447ZM39.3425 14.001C40.922 12.9422 42.7889 12.3858 44.9814 12.3607L44.9585 10.3608C42.4239 10.3899 40.168 11.0399 38.2289 12.3397L39.3425 14.001ZM44.9814 12.3607C46.2315 12.3464 47.4713 12.5402 48.7046 12.9461L49.3299 11.0464C47.8939 10.5738 46.4354 10.3439 44.9585 10.3608L44.9814 12.3607ZM48.7046 12.9461C49.8961 13.3383 50.9927 13.9871 51.9975 14.9078L53.3486 13.4331C52.1483 12.3334 50.8077 11.5328 49.3299 11.0464L48.7046 12.9461ZM52.0016 14.9115C52.9709 15.7897 53.777 16.9847 54.3988 18.5352L56.2551 17.7908C55.5432 16.0155 54.58 14.5488 53.3445 13.4294L52.0016 14.9115ZM54.3988 18.5352C55.0062 20.0499 55.3421 21.972 55.3692 24.3334L57.3691 24.3105C57.3401 21.7858 56.9813 19.602 56.2551 17.7908L54.3988 18.5352ZM55.3692 24.3334L55.3887 26.0378L57.3886 26.0149L57.3691 24.3105L55.3692 24.3334ZM56.3772 25.0264L36.1967 25.2576L36.2196 27.2575L56.4001 27.0263L56.3772 25.0264ZM37.2081 26.2461L37.1683 22.7691L35.1684 22.792L35.2082 26.269L37.2081 26.2461ZM36.1798 23.7804L52.2696 23.5961L52.2467 21.5963L36.1569 21.7806L36.1798 23.7804ZM53.2581 22.5847C53.2396 20.9712 52.8991 19.4977 52.2122 18.1877L50.4409 19.1164C50.9624 20.1109 51.2429 21.2668 51.2583 22.6076L53.2581 22.5847ZM52.2158 18.1946C51.5402 16.8812 50.5731 15.8367 49.3245 15.0809L48.2889 16.7919C49.2145 17.3522 49.9274 18.1182 50.4373 19.1095L52.2158 18.1946ZM49.3286 15.0834C48.0689 14.3128 46.6129 13.9557 44.9999 13.9742L45.0228 15.9741C46.3186 15.9593 47.3928 16.2437 48.2848 16.7894L49.3286 15.0834ZM44.9999 13.9742C43.2247 13.9946 41.6415 14.4562 40.2946 15.3943L41.4377 17.0355C42.4133 16.356 43.5936 15.9905 45.0228 15.9741L44.9999 13.9742ZM40.2964 15.3931C39.0033 16.2896 38.0093 17.4565 37.3243 18.8799L39.1264 19.7472C39.6624 18.6337 40.4289 17.7349 41.4359 17.0367L40.2964 15.3931ZM37.3243 18.8799C36.6453 20.2907 36.3162 21.7992 36.3344 23.3923L38.3343 23.3694C38.3195 22.0763 38.5844 20.8733 39.1264 19.7472L37.3243 18.8799ZM36.3344 23.3923L36.361 25.7103L38.3609 25.6874L38.3343 23.3694L36.3344 23.3923ZM36.361 25.7103C36.3849 27.7986 36.7657 29.6316 37.5504 31.1697L39.3319 30.2607C38.7217 29.0647 38.3822 27.5534 38.3609 25.6874L36.361 25.7103ZM37.555 31.1786C38.3457 32.6908 39.4481 33.8668 40.8635 34.6708L41.8514 32.9318C40.7959 32.3323 39.9542 31.4509 39.3274 30.2519L37.555 31.1786ZM40.8695 34.6742C42.2787 35.4619 43.8858 35.8293 45.6591 35.809L45.6362 33.8091C44.1597 33.8261 42.9067 33.5217 41.8453 32.9284L40.8695 34.6742ZM45.6591 35.809C46.8086 35.7958 47.8744 35.6229 48.8444 35.2741L48.1677 33.3921C47.44 33.6537 46.6002 33.7981 45.6362 33.8091L45.6591 35.809ZM48.8516 35.2715C49.8376 34.9085 50.7002 34.371 51.4253 33.6561L50.0211 32.2319C49.5101 32.7358 48.8946 33.1244 48.1605 33.3947L48.8516 35.2715ZM51.4319 33.6495C52.1634 32.9146 52.7114 32.0189 53.0861 30.9838L51.2055 30.3031C50.9193 31.0939 50.5188 31.7319 50.0145 32.2385L51.4319 33.6495ZM51.8866 31.6093L55.7852 32.6556L56.3036 30.724L52.405 29.6776L51.8866 31.6093ZM55.086 31.4043C54.737 32.5761 54.1425 33.6059 53.2947 34.504L54.7491 35.8769C55.81 34.753 56.5639 33.4491 57.0028 31.9752L55.086 31.4043ZM53.2986 34.4999C52.4517 35.3868 51.3899 36.0973 50.0935 36.6227L50.8447 38.4763C52.3763 37.8556 53.683 36.9934 54.7451 35.8811L53.2986 34.4999ZM50.1 36.6201C48.8169 37.1298 47.3475 37.4034 45.6776 37.4225L45.7005 39.4224C47.5758 39.4009 49.2931 39.0926 50.8383 38.4789L50.1 36.6201ZM80.9534 17.1535L81.2367 18.1125L82.2427 17.8153L81.8978 16.8247L80.9534 17.1535ZM77.3517 18.2176L76.4202 18.5813L76.7543 19.4368L77.635 19.1766L77.3517 18.2176ZM76.326 16.4735L75.531 17.0801L75.5377 17.0889L75.5446 17.0975L76.326 16.4735ZM74.537 15.0621L74.9739 14.1626L74.9739 14.1626L74.537 15.0621ZM67.6573 15.6864L68.2336 16.5036L68.2355 16.5023L67.6573 15.6864ZM67.222 20.8394L66.6078 21.6286L66.6078 21.6286L67.222 20.8394ZM70.6475 22.2492L70.4161 23.222L70.4201 23.223L70.6475 22.2492ZM74.5445 23.1591L74.3171 24.1329L74.3198 24.1335L74.5445 23.1591ZM79.807 25.707L79.101 26.4152L79.1045 26.4187L79.807 25.707ZM80.3305 34.2072L79.5164 33.6265L79.5128 33.6316L80.3305 34.2072ZM64.7929 36.4649L65.3355 35.6249L65.3355 35.6249L64.7929 36.4649ZM61.411 31.4237L61.1574 30.4564L60.2269 30.7004L60.4346 31.6397L61.411 31.4237ZM65.218 30.4255L66.1834 30.1646L65.9244 29.2065L64.9644 29.4582L65.218 30.4255ZM67.3167 33.5721L66.7545 34.3992L66.7589 34.4021L67.3167 33.5721ZM75.7862 33.3387L76.3806 34.1429L76.3821 34.1418L75.7862 33.3387ZM76.4427 28.1491L75.7502 28.8705L75.7569 28.8768L76.4427 28.1491ZM73.4951 26.785L73.278 27.7612L73.2795 27.7615L73.4951 26.785ZM69.12 25.8123L68.9006 26.788L68.903 26.7885L69.12 25.8123ZM63.806 23.231L63.0795 23.9183L63.0863 23.9253L63.806 23.231ZM63.2832 14.7989L62.4726 14.2133L62.4688 14.2186L63.2832 14.7989ZM66.6785 12.0837L66.2612 11.1749L66.2586 11.1762L66.6785 12.0837ZM77.7316 12.6901L77.131 13.4897L77.134 13.4919L77.7316 12.6901ZM80.6701 16.1945L77.0684 17.2585L77.635 19.1766L81.2367 18.1125L80.6701 16.1945ZM78.2832 17.8538C78.0083 17.1499 77.6125 16.482 77.1074 15.8495L75.5446 17.0975C75.9388 17.5912 76.2268 18.0859 76.4202 18.5813L78.2832 17.8538ZM77.121 15.8669C76.5736 15.1496 75.8462 14.5863 74.9739 14.1626L74.1 15.9616C74.7362 16.2706 75.2015 16.6483 75.531 17.0801L77.121 15.8669ZM74.9739 14.1626C74.036 13.707 72.9064 13.5182 71.6386 13.5327L71.6615 15.5326C72.7344 15.5203 73.5295 15.6844 74.1 15.9616L74.9739 14.1626ZM71.6386 13.5327C69.8812 13.5528 68.3399 13.9772 67.0792 14.8705L68.2355 16.5023C69.094 15.894 70.2146 15.5491 71.6615 15.5326L71.6386 13.5327ZM67.081 14.8692C65.8074 15.7673 65.0869 16.99 65.1041 18.4942L67.104 18.4713C67.0954 17.7257 67.4104 17.0842 68.2336 16.5036L67.081 14.8692ZM65.1041 18.4942C65.1187 19.7722 65.6136 20.8548 66.6078 21.6286L67.8362 20.0503C67.3626 19.6817 67.1122 19.1932 67.104 18.4713L65.1041 18.4942ZM66.6078 21.6286C67.508 22.3292 68.8126 22.8406 70.4161 23.222L70.8789 21.2763C69.3828 20.9204 68.4038 20.492 67.8362 20.0503L66.6078 21.6286ZM70.4201 23.223L74.3171 24.1329L74.7719 22.1853L70.8748 21.2754L70.4201 23.223ZM74.3198 24.1335C76.5652 24.6514 78.1206 25.438 79.1011 26.4152L80.5129 24.9987C79.1712 23.6614 77.2183 22.7495 74.7692 22.1847L74.3198 24.1335ZM79.1045 26.4187C80.0544 27.3562 80.5615 28.5805 80.5799 30.1814L82.5798 30.1584C82.5562 28.1005 81.8814 26.3494 80.5095 24.9953L79.1045 26.4187ZM80.5799 30.1814C80.5947 31.4748 80.2401 32.6121 79.5164 33.6265L81.1446 34.7879C82.1211 33.4191 82.5993 31.8648 82.5798 30.1584L80.5799 30.1814ZM79.5128 33.6316C78.7906 34.6576 77.7568 35.4974 76.3667 36.1344L77.1998 37.9526C78.862 37.1909 80.1931 36.1398 81.1483 34.7828L79.5128 33.6316ZM76.3667 36.1344C74.9916 36.7645 73.3546 37.1055 71.4316 37.1275L71.4545 39.1274C73.5994 39.1028 75.5225 38.7212 77.1998 37.9526L76.3667 36.1344ZM71.4316 37.1275C68.9045 37.1565 66.894 36.6317 65.3355 35.6249L64.2503 37.3049C66.218 38.576 68.641 39.1596 71.4545 39.1274L71.4316 37.1275ZM65.3355 35.6249C63.8131 34.6414 62.8273 33.1964 62.3874 31.2078L60.4346 31.6397C60.9776 34.0947 62.2464 36.0104 64.2503 37.3049L65.3355 35.6249ZM61.6647 32.391L65.4717 31.3928L64.9644 29.4582L61.1574 30.4564L61.6647 32.391ZM64.2527 30.6865C64.683 32.2783 65.5028 33.5483 66.7546 34.3992L67.8789 32.7451C67.0919 32.2101 66.5126 31.3824 66.1834 30.1646L64.2527 30.6865ZM66.7589 34.4021C68.0048 35.2395 69.5607 35.6034 71.3457 35.5829L71.3228 33.5831C69.8125 33.6004 68.6901 33.2903 67.8746 32.7422L66.7589 34.4021ZM71.3457 35.5829C73.3528 35.56 75.0652 35.1152 76.3806 34.1429L75.1918 32.5346C74.321 33.1783 73.0654 33.5631 71.3228 33.5831L71.3457 35.5829ZM76.3821 34.1418C77.6795 33.179 78.4407 31.9286 78.4233 30.4106L76.4234 30.4335C76.4318 31.1654 76.1015 31.8595 75.1903 32.5357L76.3821 34.1418ZM78.4233 30.4106C78.4099 29.2387 77.9757 28.2197 77.1285 27.4213L75.7569 28.8768C76.1964 29.291 76.416 29.7873 76.4234 30.4335L78.4233 30.4106ZM77.1352 27.4276C76.3075 26.6332 75.1256 26.1208 73.7106 25.8085L73.2795 27.7615C74.5077 28.0326 75.2909 28.4297 75.7502 28.8705L77.1352 27.4276ZM73.7121 25.8089L69.337 24.8362L68.903 26.7885L73.278 27.7612L73.7121 25.8089ZM69.3394 24.8367C67.0363 24.3187 65.4764 23.5222 64.5257 22.5367L63.0863 23.9253C64.4128 25.3003 66.3956 26.2246 68.9006 26.788L69.3394 24.8367ZM64.5324 22.5438C63.5962 21.5541 63.102 20.3047 63.0838 18.7219L61.084 18.7448C61.1072 20.7755 61.7611 22.5245 63.0795 23.9182L64.5324 22.5438ZM63.0838 18.7219C63.0692 17.4454 63.4105 16.3435 64.0976 15.3793L62.4688 14.2186C61.523 15.546 61.0647 17.067 61.084 18.7448L63.0838 18.7219ZM64.0938 15.3845C64.8097 14.3936 65.7995 13.5922 67.0984 12.9913L66.2586 11.1762C64.6861 11.9037 63.4124 12.9124 62.4726 14.2133L64.0938 15.3845ZM67.0957 12.9925C68.397 12.3951 69.8993 12.0752 71.6217 12.0555L71.5988 10.0556C69.6396 10.0781 67.854 10.4437 66.2612 11.1749L67.0957 12.9925ZM71.6217 12.0555C74.0763 12.0274 75.8745 12.5458 77.131 13.4897L78.3322 11.8906C76.6083 10.5957 74.3256 10.0244 71.5988 10.0556L71.6217 12.0555ZM77.134 13.4919C78.4671 14.4856 79.425 15.8048 80.009 17.4823L81.8978 16.8247C81.1892 14.7895 79.9993 13.1331 78.3292 11.8883L77.134 13.4919ZM87.7184 37.3955L86.7185 37.407L86.7299 38.4069L87.7298 38.3954L87.7184 37.3955ZM87.4185 11.2154L87.407 10.2155L86.4071 10.2269L86.4185 11.2269L87.4185 11.2154ZM91.4409 11.1693L92.4409 11.1579L92.4294 10.1579L91.4295 10.1694L91.4409 11.1693ZM91.7409 37.3494L91.7523 38.3494L92.7522 38.3379L92.7408 37.338L91.7409 37.3494ZM87.3764 6.05078L86.6924 6.78038L86.6998 6.78721L87.3764 6.05078ZM87.3322 2.19876L86.639 1.47799L86.6318 1.48506L87.3322 2.19876ZM91.3717 2.15249L90.6878 2.88209L90.6952 2.88891L91.3717 2.15249ZM91.4159 6.00451L90.7226 5.28374L90.7154 5.2908L91.4159 6.00451ZM88.7183 37.3841L88.4184 11.204L86.4185 11.2269L86.7185 37.407L88.7183 37.3841ZM87.4299 12.2153L91.4524 12.1693L91.4295 10.1694L87.407 10.2155L87.4299 12.2153ZM90.441 11.1808L90.7409 37.3609L92.7408 37.338L92.4409 11.1579L90.441 11.1808ZM91.7294 36.3495L87.7069 36.3956L87.7298 38.3954L91.7523 38.3494L91.7294 36.3495ZM89.4024 5.8287C88.8713 5.83478 88.4386 5.66867 88.0529 5.31436L86.6998 6.78721C87.4627 7.488 88.3883 7.84045 89.4253 7.82857L89.4024 5.8287ZM88.0603 5.32122C87.6897 4.97384 87.5244 4.59172 87.5191 4.12289L85.5192 4.1458C85.531 5.17687 85.9372 6.07238 86.6924 6.78035L88.0603 5.32122ZM87.5191 4.12289C87.5137 3.65406 87.6702 3.26825 88.0327 2.91247L86.6318 1.48506C85.893 2.21015 85.5074 3.11473 85.5192 4.1458L87.5191 4.12289ZM88.0254 2.9195C88.4029 2.55645 88.8317 2.38046 89.3628 2.37438L89.3399 0.374511C88.3029 0.38639 87.3856 0.75995 86.639 1.47803L88.0254 2.9195ZM89.3628 2.37438C89.8935 2.3683 90.3165 2.534 90.6878 2.88205L92.0556 1.42292C91.3011 0.715622 90.3772 0.362627 89.3399 0.374511L89.3628 2.37438ZM90.6952 2.88891C91.0754 3.23814 91.2408 3.61828 91.2461 4.08019L93.246 4.05728C93.2341 3.01929 92.8166 2.12194 92.0483 1.41606L90.6952 2.88891ZM91.2461 4.08019C91.2514 4.5421 91.0947 4.92593 90.7227 5.28377L92.1091 6.72524C92.8611 6.00195 93.2578 5.09528 93.246 4.05728L91.2461 4.08019ZM90.7154 5.2908C90.3522 5.64727 89.9331 5.82262 89.4024 5.8287L89.4253 7.82857C90.4626 7.81668 91.3782 7.44261 92.1163 6.71821L90.7154 5.2908ZM104.775 46.8144L105.101 45.869L105.094 45.8667L104.775 46.8144ZM101.258 44.9114L101.904 44.1479L101.904 44.1473L101.258 44.9114ZM99.0305 42.3799L98.4465 41.5681L97.691 42.1116L98.1789 42.9042L99.0305 42.3799ZM102.209 40.0933L102.997 39.4782L102.406 38.7199L101.625 39.2816L102.209 40.0933ZM103.608 41.7138L104.347 41.04L104.341 41.0333L103.608 41.7138ZM105.911 43.3068L106.331 42.3993L106.326 42.3972L105.911 43.3068ZM114.969 42.3678L115.575 43.1633L115.575 43.1633L114.969 42.3678ZM116.915 32.2198L117.915 32.2084L117.904 31.2084L116.904 31.2199L116.915 32.2198ZM116.574 32.2237L116.563 31.2238L116.006 31.2302L115.718 31.7071L116.574 32.2237ZM115.333 34.0108L114.536 33.4077L114.534 33.4096L115.333 34.0108ZM113.037 35.8952L113.518 36.7718L113.521 36.7698L113.037 35.8952ZM103.279 35.308L102.776 36.1719L102.778 36.1734L103.279 35.308ZM99.258 30.9902L98.3709 31.4518L98.3731 31.456L99.258 30.9902ZM99.064 17.0313L99.9724 17.4494L99.9733 17.4474L99.064 17.0313ZM102.948 12.3501L103.502 13.1828L103.506 13.1801L102.948 12.3501ZM112.825 11.4358L112.341 12.3109L112.352 12.3172L112.825 11.4358ZM115.165 13.3182L114.37 13.9253L114.375 13.9324L114.381 13.9394L115.165 13.3182ZM116.446 15.0422L115.614 15.5968L115.915 16.0484L116.457 16.0422L116.446 15.0422ZM116.855 15.0376L116.866 16.0375L117.866 16.026L117.855 15.0261L116.855 15.0376ZM116.807 10.8787L116.796 9.87881L115.796 9.89026L115.807 10.8902L116.807 10.8787ZM120.693 10.8342L121.693 10.8228L121.682 9.82284L120.682 9.83429L120.693 10.8342ZM119.531 43.2701L118.715 42.692L118.709 42.6995L119.531 43.2701ZM115.476 46.4361L115.107 45.5067L115.099 45.5098L115.476 46.4361ZM113.571 31.9683L113.009 31.1414L113.009 31.1414L113.571 31.9683ZM116.074 28.7519L117.001 29.127L117.001 29.127L116.074 28.7519ZM115.977 18.7808L116.903 18.4038L116.903 18.4038L115.977 18.7808ZM113.416 15.4179L112.833 16.2305L112.833 16.2305L113.416 15.4179ZM105.031 15.5821L104.417 14.7929L104.413 14.7959L105.031 15.5821ZM102.531 19.0883L101.595 18.7351L101.593 18.7415L102.531 19.0883ZM102.659 28.7522L101.737 29.1394L101.741 29.1484L102.659 28.7522ZM105.253 31.9954L104.685 32.8186L104.694 32.825L105.253 31.9954ZM109.783 46.507C107.921 46.5283 106.368 46.306 105.101 45.869L104.449 47.7598C105.988 48.2907 107.782 48.5301 109.806 48.5069L109.783 46.507ZM105.094 45.8667C103.787 45.4265 102.732 44.8479 101.904 44.1479L100.613 45.6748C101.667 46.567 102.956 47.2571 104.456 47.7621L105.094 45.8667ZM101.904 44.1473C101.043 43.421 100.375 42.6558 99.882 41.8556L98.1789 42.9042C98.7979 43.9095 99.6145 44.832 100.613 45.6754L101.904 44.1473ZM99.6145 43.1917L102.793 40.9051L101.625 39.2816L98.4465 41.5681L99.6145 43.1917ZM101.421 40.7085C101.812 41.2107 102.299 41.7733 102.876 42.3942L104.341 41.0333C103.79 40.4398 103.344 39.9221 102.997 39.4782L101.421 40.7085ZM102.869 42.3875C103.545 43.1291 104.434 43.7318 105.495 44.2165L106.326 42.3972C105.445 41.9949 104.799 41.5356 104.347 41.0401L102.869 42.3875ZM105.491 44.2144C106.656 44.7535 108.1 44.9807 109.765 44.9616L109.742 42.9618C108.249 42.9789 107.131 42.7695 106.331 42.3993L105.491 44.2144ZM109.765 44.9616C112.043 44.9356 114.004 44.3599 115.575 43.1633L114.363 41.5723C113.207 42.4525 111.692 42.9394 109.742 42.9618L109.765 44.9616ZM115.575 43.1633C117.257 41.882 118.004 39.9287 117.976 37.5262L115.976 37.5491C115.999 39.51 115.407 40.7767 114.363 41.5723L115.575 43.1633ZM117.976 37.5262L117.915 32.2084L115.915 32.2313L115.976 37.5491L117.976 37.5262ZM116.904 31.2199L116.563 31.2238L116.586 33.2237L116.927 33.2197L116.904 31.2199ZM115.718 31.7071C115.453 32.1459 115.063 32.7107 114.536 33.4077L116.131 34.6139C116.679 33.8894 117.115 33.2628 117.431 32.7403L115.718 31.7071ZM114.534 33.4096C114.115 33.9673 113.471 34.5112 112.552 35.0205L113.521 36.7698C114.613 36.1651 115.5 35.4527 116.132 34.612L114.534 33.4096ZM112.555 35.0185C111.76 35.4551 110.594 35.7243 108.978 35.7428L109.001 37.7427C110.793 37.7221 112.325 37.4263 113.518 36.7718L112.555 35.0185ZM108.978 35.7428C107.029 35.7651 105.306 35.326 103.78 34.4427L102.778 36.1734C104.639 37.2514 106.722 37.7688 109.001 37.7427L108.978 35.7428ZM103.783 34.4442C102.279 33.5672 101.064 32.2738 100.143 30.5243L98.3731 31.456C99.4503 33.5021 100.916 35.0873 102.776 36.1719L103.783 34.4442ZM100.145 30.5285C99.2469 28.8027 98.7594 26.6533 98.7295 24.0412L96.7296 24.0641C96.7622 26.9062 97.2937 29.3819 98.3709 31.4518L100.145 30.5285ZM98.7295 24.0412C98.7001 21.476 99.126 19.2879 99.9724 17.4494L98.1556 16.6131C97.1612 18.7732 96.6976 21.2661 96.7296 24.0641L98.7295 24.0412ZM99.9733 17.4474C100.824 15.5879 102.003 14.1794 103.502 13.1828L102.394 11.5174C100.554 12.741 99.1441 14.4532 98.1547 16.6151L99.9733 17.4474ZM103.506 13.1801C104.998 12.1777 106.741 11.6532 108.77 11.63L108.747 9.63008C106.367 9.65734 104.237 10.2796 102.39 11.5201L103.506 13.1801ZM108.77 11.63C110.379 11.6115 111.542 11.8689 112.341 12.3108L113.309 10.5607C112.095 9.88929 110.547 9.60946 108.747 9.63008L108.77 11.63ZM112.352 12.3172C113.28 12.814 113.936 13.357 114.37 13.9253L115.959 12.7111C115.309 11.8599 114.405 11.148 113.297 10.5543L112.352 12.3172ZM114.381 13.9394C114.927 14.6279 115.335 15.1783 115.614 15.5968L117.278 14.4877C116.955 14.0039 116.509 13.405 115.948 12.697L114.381 13.9394ZM116.457 16.0422L116.866 16.0375L116.843 14.0376L116.434 14.0423L116.457 16.0422ZM117.855 15.0261L117.807 10.8673L115.807 10.8902L115.855 15.049L117.855 15.0261ZM116.819 11.8787L120.705 11.8342L120.682 9.83429L116.796 9.87881L116.819 11.8787ZM119.693 10.8457L120.002 37.7757L122.002 37.7528L121.693 10.8228L119.693 10.8457ZM120.002 37.7757C120.026 39.8763 119.568 41.4878 118.715 42.692L120.347 43.8482C121.507 42.211 122.029 40.152 122.002 37.7528L120.002 37.7757ZM118.709 42.6995C117.833 43.9611 116.643 44.8965 115.107 45.5068L115.845 47.3654C117.725 46.6183 119.238 45.443 120.352 43.8408L118.709 42.6995ZM115.099 45.5098C113.534 46.1463 111.766 46.4843 109.783 46.507L109.806 48.5069C112.004 48.4817 114.024 48.1058 115.852 47.3624L115.099 45.5098ZM109.505 34.123C111.274 34.1027 112.835 33.6783 114.134 32.7953L113.009 31.1414C112.098 31.761 110.94 32.1064 109.482 32.1231L109.505 34.123ZM114.134 32.7953C115.422 31.9192 116.373 30.6797 117.001 29.127L115.147 28.3769C114.648 29.61 113.931 30.5148 113.009 31.1414L114.134 32.7953ZM117.001 29.127C117.627 27.5818 117.91 25.7815 117.887 23.7536L115.887 23.7765C115.908 25.612 115.649 27.1363 115.147 28.3769L117.001 29.127ZM117.887 23.7536C117.864 21.7683 117.544 19.9787 116.903 18.4038L115.051 19.1578C115.579 20.4561 115.866 21.9893 115.887 23.7765L117.887 23.7536ZM116.903 18.4038C116.257 16.8146 115.293 15.5336 113.999 14.6053L112.833 16.2305C113.784 16.9129 114.528 17.8739 115.051 19.1578L116.903 18.4038ZM113.999 14.6053C112.672 13.6541 111.074 13.2173 109.266 13.238L109.288 15.2379C110.752 15.2211 111.913 15.5709 112.833 16.2305L113.999 14.6053ZM109.266 13.238C107.386 13.2595 105.747 13.7575 104.417 14.793L105.645 16.3713C106.567 15.6536 107.759 15.2554 109.288 15.2379L109.266 13.238ZM104.413 14.7959C103.14 15.7963 102.205 17.1213 101.595 18.7351L103.467 19.4414C103.96 18.1333 104.691 17.1209 105.649 16.3683L104.413 14.7959ZM101.593 18.7415C101.005 20.3316 100.73 22.0718 100.751 23.9499L102.751 23.927C102.732 22.2598 102.977 20.7666 103.469 19.4351L101.593 18.7415ZM100.751 23.9499C100.773 25.8712 101.093 27.6075 101.737 29.1394L103.581 28.365C103.056 27.1147 102.771 25.6418 102.751 23.927L100.751 23.9499ZM101.741 29.1484C102.403 30.6842 103.382 31.9198 104.685 32.8185L105.821 31.1724C104.855 30.506 104.105 29.5795 103.577 28.356L101.741 29.1484ZM104.694 32.825C106.042 33.732 107.665 34.1441 109.505 34.123L109.482 32.1231C107.958 32.1406 106.755 31.8009 105.811 31.1659L104.694 32.825ZM132.379 36.8839L132.39 37.8838L133.39 37.8724L133.379 36.8724L132.379 36.8839ZM128.356 36.93L127.356 36.9414L127.368 37.9414L128.368 37.9299L128.356 36.93ZM128.056 10.7499L128.045 9.74994L127.045 9.76139L127.056 10.7613L128.056 10.7499ZM131.943 10.7054L132.942 10.6939L132.931 9.69397L131.931 9.70542L131.943 10.7054ZM131.989 14.796L130.989 14.8075L131.001 15.8074L132.001 15.7959L131.989 14.796ZM132.33 14.7921L132.342 15.792L132.982 15.7847L133.243 15.2007L132.33 14.7921ZM135.089 11.5557L135.641 12.3897L135.646 12.3861L135.089 11.5557ZM144.581 11.3106L144.111 12.1934L144.117 12.1965L144.581 11.3106ZM147.721 14.5476L146.833 15.0078L146.834 15.0106L147.721 14.5476ZM149.082 36.6925L149.094 37.6925L150.094 37.681L150.082 36.6811L149.082 36.6925ZM145.06 36.7386L144.06 36.7501L144.071 37.75L145.071 37.7386L145.06 36.7386ZM143.215 15.5879L142.488 16.274L142.491 16.2775L143.215 15.5879ZM135.364 14.7744L134.872 13.9039L134.868 13.9063L135.364 14.7744ZM133.023 17.2389L132.139 16.7721L132.139 16.7721L133.023 17.2389ZM131.198 21.1464L131.379 36.8953L133.379 36.8724L133.198 21.1235L131.198 21.1464ZM132.367 35.884L128.345 35.93L128.368 37.9299L132.39 37.8838L132.367 35.884ZM129.356 36.9185L129.056 10.7384L127.056 10.7613L127.356 36.9414L129.356 36.9185ZM128.068 11.7498L131.954 11.7053L131.931 9.70542L128.045 9.74994L128.068 11.7498ZM130.943 10.7168L130.989 14.8075L132.989 14.7845L132.942 10.6939L130.943 10.7168ZM132.001 15.7959L132.342 15.792L132.319 13.7922L131.978 13.7961L132.001 15.7959ZM133.243 15.2007C133.763 14.0403 134.556 13.1078 135.641 12.3897L134.537 10.7218C133.141 11.6458 132.095 12.871 131.418 14.3835L133.243 15.2007ZM135.646 12.3861C136.68 11.692 138.083 11.2942 139.927 11.273L139.904 9.27316C137.794 9.29733 135.978 9.75459 134.532 10.7254L135.646 12.3861ZM139.927 11.273C141.56 11.2543 142.945 11.5726 144.111 12.1934L145.051 10.4279C143.542 9.62464 141.816 9.25126 139.904 9.27316L139.927 11.273ZM144.117 12.1965C145.257 12.7937 146.163 13.7158 146.833 15.0078L148.608 14.0874C147.767 12.4647 146.58 11.2289 145.045 10.4248L144.117 12.1965ZM146.834 15.0106C147.495 16.2757 147.867 17.9444 147.892 20.0687L149.892 20.0458C149.865 17.7159 149.457 15.7115 148.607 14.0846L146.834 15.0106ZM147.892 20.0687L148.082 36.704L150.082 36.6811L149.892 20.0458L147.892 20.0687ZM149.071 35.6926L145.048 35.7387L145.071 37.7386L149.094 37.6925L149.071 35.6926ZM146.06 36.7272L145.872 20.3646L143.872 20.3875L144.06 36.7501L146.06 36.7272ZM145.872 20.3646C145.847 18.1362 145.244 16.268 143.939 14.8983L142.491 16.2775C143.349 17.1786 143.851 18.5026 143.872 20.3875L145.872 20.3646ZM143.943 14.9019C142.635 13.5147 140.874 12.8759 138.786 12.8998L138.809 14.8997C140.449 14.8809 141.633 15.3676 142.488 16.274L143.943 14.9019ZM138.786 12.8998C137.353 12.9163 136.04 13.2435 134.872 13.904L135.857 15.6448C136.699 15.1685 137.675 14.9127 138.809 14.8997L138.786 12.8998ZM134.868 13.9063C133.699 14.5747 132.789 15.5403 132.139 16.7721L133.908 17.7056C134.392 16.7879 135.042 16.1105 135.861 15.6424L134.868 13.9063ZM132.139 16.7721C131.476 18.0268 131.18 19.4986 131.198 21.1464L133.198 21.1235C133.182 19.726 133.435 18.6004 133.908 17.7056L132.139 16.7721ZM160.868 35.4325L160.352 36.2888L160.358 36.2926L160.868 35.4325ZM156.604 30.7764L155.709 31.2218L155.712 31.2278L156.604 30.7764ZM156.442 16.6296L155.536 16.2068L155.535 16.2089L156.442 16.6296ZM160.512 11.7759L161.068 12.6074L161.069 12.6065L160.512 11.7759ZM170.744 10.6018L171.056 9.65192L171.056 9.65192L170.744 10.6018ZM174.399 12.776L173.724 13.5133L173.728 13.517L174.399 12.776ZM177.053 16.7686L177.981 16.3964L177.981 16.3964L177.053 16.7686ZM178.115 24.6319L178.126 25.6318L179.126 25.6204L179.115 24.6205L178.115 24.6319ZM157.935 24.8631L156.935 24.8745L156.946 25.8745L157.946 25.863L157.935 24.8631ZM157.895 21.386L157.883 20.3861L156.883 20.3976L156.895 21.3975L157.895 21.386ZM173.985 21.2017L173.996 22.2017L174.996 22.1902L174.985 21.1903L173.985 21.2017ZM173.053 17.2576L172.164 17.715L172.167 17.722L173.053 17.2576ZM170.533 14.542L170.011 15.395L170.015 15.3975L170.533 14.542ZM162.593 14.8204L163.162 15.6423L163.164 15.641L162.593 14.8204ZM159.952 17.9191L159.051 17.4854L159.051 17.4854L159.952 17.9191ZM160.168 29.3208L159.277 29.7753L159.281 29.7841L160.168 29.3208ZM163.084 32.4069L162.59 33.2764L162.596 33.2798L163.084 32.4069ZM170.232 32.9387L170.571 33.8797L170.578 33.8771L170.232 32.9387ZM172.45 31.5495L173.152 32.2616L173.158 32.255L172.45 31.5495ZM173.872 29.249L174.131 28.2832L173.244 28.0451L172.932 28.9086L173.872 29.249ZM177.771 30.2953L178.729 30.5808L179.023 29.5959L178.03 29.3295L177.771 30.2953ZM175.748 33.796L176.472 34.4866L176.475 34.4824L175.748 33.796ZM172.196 36.155L172.565 37.0844L172.571 37.0818L172.196 36.155ZM167.404 36.0281C165.032 36.0553 163.037 35.5559 161.378 34.5724L160.358 36.2926C162.384 37.4942 164.754 38.0586 167.427 38.0279L167.404 36.0281ZM161.385 34.5761C159.723 33.5738 158.428 32.1658 157.497 30.3251L155.712 31.2278C156.804 33.3869 158.352 35.0829 160.352 36.2888L161.385 34.5761ZM157.5 30.3311C156.578 28.4783 156.087 26.2853 156.058 23.7254L154.058 23.7483C154.09 26.5518 154.63 29.0518 155.709 31.2218L157.5 30.3311ZM156.058 23.7254C156.028 21.1659 156.469 18.949 157.35 17.0504L155.535 16.2089C154.508 18.4233 154.026 20.9446 154.058 23.7483L156.058 23.7254ZM157.349 17.0525C158.243 15.1355 159.484 13.665 161.068 12.6074L159.957 10.9444C158.043 12.2224 156.572 13.9877 155.536 16.2068L157.349 17.0525ZM161.069 12.6065C162.648 11.5477 164.515 10.9913 166.708 10.9662L166.685 8.96636C164.15 8.9954 161.894 9.64539 159.955 10.9452L161.069 12.6065ZM166.708 10.9662C167.958 10.9519 169.198 11.1457 170.431 11.5517L171.056 9.65192C169.62 9.17929 168.162 8.94944 166.685 8.96636L166.708 10.9662ZM170.431 11.5517C171.622 11.9438 172.719 12.5926 173.724 13.5133L175.075 12.0386C173.875 10.939 172.534 10.1383 171.056 9.65192L170.431 11.5517ZM173.728 13.517C174.697 14.3952 175.503 15.5903 176.125 17.1407L177.981 16.3964C177.27 14.621 176.306 13.1543 175.071 12.0349L173.728 13.517ZM176.125 17.1407C176.733 18.6555 177.069 20.5775 177.096 22.9389L179.095 22.916C179.067 20.3914 178.708 18.2075 177.981 16.3964L176.125 17.1407ZM177.096 22.9389L177.115 24.6434L179.115 24.6205L179.095 22.916L177.096 22.9389ZM178.104 23.632L157.923 23.8632L157.946 25.863L178.126 25.6318L178.104 23.632ZM158.934 24.8516L158.895 21.3746L156.895 21.3975L156.935 24.8745L158.934 24.8516ZM157.906 22.386L173.996 22.2017L173.973 20.2018L157.883 20.3861L157.906 22.386ZM174.985 21.1903C174.966 19.5768 174.625 18.1032 173.939 16.7932L172.167 17.722C172.689 18.7165 172.969 19.8723 172.985 21.2132L174.985 21.1903ZM173.942 16.8002C173.267 15.4867 172.3 14.4423 171.051 13.6865L170.015 15.3975C170.941 15.9577 171.654 16.7237 172.164 17.715L173.942 16.8002ZM171.055 13.6889C169.795 12.9183 168.339 12.5613 166.726 12.5798L166.749 14.5796C168.045 14.5648 169.119 14.8493 170.011 15.395L171.055 13.6889ZM166.726 12.5798C164.951 12.6001 163.368 13.0617 162.021 13.9999L163.164 15.641C164.14 14.9615 165.32 14.596 166.749 14.5796L166.726 12.5798ZM162.023 13.9986C160.73 14.8951 159.736 16.0621 159.051 17.4854L160.853 18.3528C161.389 17.2392 162.155 16.3404 163.162 15.6423L162.023 13.9986ZM159.051 17.4854C158.372 18.8962 158.043 20.4047 158.061 21.9978L160.061 21.9749C160.046 20.6818 160.311 19.4788 160.853 18.3528L159.051 17.4854ZM158.061 21.9978L158.087 24.3159L160.087 24.2929L160.061 21.9749L158.061 21.9978ZM158.087 24.3159C158.111 26.4042 158.492 28.2371 159.277 29.7752L161.058 28.8663C160.448 27.6702 160.109 26.1589 160.087 24.2929L158.087 24.3159ZM159.281 29.7841C160.072 31.2963 161.175 32.4723 162.59 33.2764L163.578 31.5374C162.522 30.9378 161.681 30.0564 161.054 28.8574L159.281 29.7841ZM162.596 33.2798C164.005 34.0674 165.612 34.4349 167.385 34.4145L167.363 32.4147C165.886 32.4316 164.633 32.1272 163.572 31.534L162.596 33.2798ZM167.385 34.4145C168.535 34.4014 169.601 34.2284 170.571 33.8797L169.894 31.9976C169.166 32.2593 168.327 32.4036 167.363 32.4147L167.385 34.4145ZM170.578 33.8771C171.564 33.514 172.427 32.9765 173.152 32.2616L171.747 30.8375C171.236 31.3413 170.621 31.73 169.887 32.0003L170.578 33.8771ZM173.158 32.255C173.89 31.5202 174.438 30.6244 174.812 29.5894L172.932 28.9086C172.646 29.6994 172.245 30.3374 171.741 30.844L173.158 32.255ZM173.613 30.2148L177.512 31.2611L178.03 29.3295L174.131 28.2832L173.613 30.2148ZM176.812 30.0099C176.463 31.1816 175.869 32.2114 175.021 33.1095L176.475 34.4824C177.536 33.3586 178.29 32.0546 178.729 30.5808L176.812 30.0099ZM175.025 33.1054C174.178 33.9924 173.116 34.7028 171.82 35.2282L172.571 37.0818C174.103 36.4611 175.409 35.5989 176.472 34.4866L175.025 33.1054ZM171.826 35.2256C170.543 35.7353 169.074 36.0089 167.404 36.0281L167.427 38.0279C169.302 38.0065 171.02 37.6981 172.565 37.0844L171.826 35.2256ZM184.368 36.2883L183.368 36.2998L183.38 37.2997L184.38 37.2883L184.368 36.2883ZM184.068 10.1082L184.057 9.10828L183.057 9.11974L183.068 10.1197L184.068 10.1082ZM187.954 10.0637L188.954 10.0522L188.943 9.05231L187.943 9.06376L187.954 10.0637ZM188 14.018L187 14.0294L187.011 15.0294L188.011 15.0179L188 14.018ZM188.273 14.0149L188.284 15.0148L188.981 15.0068L189.215 14.3498L188.273 14.0149ZM190.827 10.832L190.275 9.99806L190.275 9.99806L190.827 10.832ZM197.155 9.61737L198.154 9.60592L198.144 8.70099L197.243 8.62126L197.155 9.61737ZM197.201 13.708L196.97 14.6809L198.216 14.9773L198.201 13.6966L197.201 13.708ZM196.262 13.5654L196.109 14.5536L196.122 14.5556L196.135 14.5573L196.262 13.5654ZM191.344 14.3036L191.822 15.1822L191.825 15.1802L191.344 14.3036ZM189.017 16.5122L188.162 15.9938L188.16 15.9967L189.017 16.5122ZM188.391 36.2422L188.402 37.2422L189.402 37.2307L189.391 36.2308L188.391 36.2422ZM185.368 36.2769L185.068 10.0968L183.068 10.1197L183.368 36.2998L185.368 36.2769ZM184.08 11.1081L187.966 11.0636L187.943 9.06376L184.057 9.10828L184.08 11.1081ZM186.955 10.0752L187 14.0294L189 14.0065L188.954 10.0522L186.955 10.0752ZM188.011 15.0179L188.284 15.0148L188.261 13.0149L187.988 13.018L188.011 15.0179ZM189.215 14.3498C189.599 13.2694 190.304 12.3772 191.379 11.6659L190.275 9.99806C188.869 10.9289 187.871 12.1586 187.33 13.6799L189.215 14.3498ZM191.379 11.6659C192.45 10.9569 193.665 10.5892 195.052 10.5733L195.029 8.57347C193.279 8.59351 191.685 9.06493 190.275 9.99806L191.379 11.6659ZM195.052 10.5733C195.336 10.5701 195.696 10.5714 196.134 10.5777L196.163 8.57786C195.714 8.5715 195.336 8.56995 195.029 8.57347L195.052 10.5733ZM196.134 10.5777C196.571 10.5839 196.877 10.5967 197.066 10.6135L197.243 8.62126C196.977 8.59779 196.612 8.58424 196.163 8.57786L196.134 10.5777ZM196.155 9.62883L196.201 13.7195L198.201 13.6966L198.154 9.60592L196.155 9.62883ZM197.433 12.7352C197.234 12.6878 196.863 12.6341 196.389 12.5734L196.135 14.5573C196.64 14.6218 196.895 14.6632 196.97 14.6809L197.433 12.7352ZM196.415 12.5771C195.877 12.4938 195.316 12.4568 194.732 12.4635L194.755 14.4634C195.24 14.4578 195.691 14.4887 196.109 14.5536L196.415 12.5771ZM194.732 12.4635C193.316 12.4797 192.018 12.7931 190.863 13.4269L191.825 15.1802C192.658 14.723 193.627 14.4763 194.755 14.4634L194.732 12.4635ZM190.867 13.4249C189.732 14.0418 188.824 14.901 188.162 15.9938L189.872 17.0305C190.347 16.2466 190.992 15.6334 191.822 15.1822L190.867 13.4249ZM188.16 15.9967C187.498 17.0971 187.186 18.3371 187.201 19.6866L189.201 19.6637C189.189 18.6497 189.421 17.781 189.874 17.0277L188.16 15.9967ZM187.201 19.6866L187.391 36.2537L189.391 36.2308L189.201 19.6637L187.201 19.6866ZM188.379 35.2423L184.357 35.2884L184.38 37.2883L188.402 37.2422L188.379 35.2423Z" fill="white"/>
</svg>
