<svg width="457.83128662109374px" height="116px" xmlns="http://www.w3.org/2000/svg" viewBox="21.08435668945313 17 457.83128662109374 116" style="background: rgba(0, 0, 0, 0);" preserveAspectRatio="xMidYMid"><defs><filter id="editing-hole" x="-100%" y="-100%" width="300%" height="300%"><feFlood flood-color="#000" result="black"></feFlood><feMorphology operator="dilate" radius="2" in="SourceGraphic" result="erode"></feMorphology><feGaussianBlur in="erode" stdDeviation="4" result="blur"></feGaussianBlur><feOffset in="blur" dx="2" dy="2" result="offset"></feOffset><feComposite operator="atop" in="offset" in2="black" result="merge"></feComposite><feComposite operator="in" in="merge" in2="SourceGraphic" result="inner-shadow"></feComposite></filter></defs><g filter="url(#editing-hole)"><g transform="translate(88.93998473882675, 102.65999984741211)"><path d="M17.88-15.44L17.88-15.44L17.88-15.44Q13.63-25.38 7.19-34.31L7.19-34.31L7.19-34.31Q5.75-36.31 4.38-37L4.38-37L4.38-37Q2.81-37.75 0.81-38.19L0.81-38.19L0.81-39.13L0.81-39.13Q3.75-38.88 9.50-38.88L9.50-38.88L9.50-38.88Q15.63-38.88 18.38-39.13L18.38-39.13L18.38-37.88L18.38-37.88Q14.88-37.56 14.38-36.81L14.38-36.81L14.38-36.81Q14.06-36.19 13.94-35.31L13.94-35.31L13.81-34.56L13.81-34.56Q18.06-26.31 22.50-18.81L22.50-18.81L22.50-18.81Q31.56-35 31.63-35.88L31.63-35.88L31.63-35.88Q31.63-36.75 30.19-37.19L30.19-37.19L26.44-38.19L26.44-39.13L26.44-39.13Q29.38-38.88 33-38.88L33-38.88L33-38.88Q36.69-38.88 39.50-39.13L39.50-39.13L39.50-37.88L39.50-37.88Q36.94-37.75 35.31-36.81L35.31-36.81L35.31-36.81Q34.75-36.44 33.81-35.44L33.81-35.44L32.88-34.44L32.88-34.44Q25.50-21.69 23.81-18.06L23.81-18.06L23.81-18.06Q23.81-15.69 24.06-2.19L24.06-2.19L24.06-2.19Q24.06-0.63 29.19-0.63L29.19-0.63L29.19 0.56L12.19 0.56L12.19-0.44L12.19-0.44Q12.38-0.44 12.88-0.44L12.88-0.44L12.88-0.44Q17.50-0.44 17.56-1.88L17.56-1.88L17.56-1.88Q17.69-9.19 17.88-15.44ZM44.13-23.69L44.13-24.69L44.13-24.69Q49.63-24.69 53.19-25.38L53.19-25.38L53.06-8.25L53.06-8.25Q53.19-1.06 56.44-1.06L56.44-1.06L56.44-1.06Q58.25-1.06 59.94-2.34L59.94-2.34L59.94-2.34Q61.63-3.63 62.69-5.13L62.69-5.13L62.69-5.13Q63.75-6.63 64.38-7.94L64.38-7.94L65-9.19L65-22.94L65-22.94Q63.81-23.69 61.31-23.69L61.31-23.69L61.31-24.69L61.31-24.69Q67.19-24.69 70.50-25.38L70.50-25.38L70-12.94L70-12.94Q70-11.56 70-9.81L70-9.81L70.06-1.75L70.06-1.75Q70.81-1.13 73.88-1L73.88-1L73.88-0.25L73.88-0.25Q69.13 0 65.31 0.94L65.31 0.94L64.88-5.88L64.13-4.88L64.13-4.88Q63.38-3.88 62.19-2.63L62.19-2.63L62.19-2.63Q61-1.38 59.19-0.34L59.19-0.34L59.19-0.34Q57.38 0.69 55.69 0.69L55.69 0.69L55.69 0.69Q51.38 0.69 49.63-1.56L49.63-1.56L49.63-1.56Q47.88-3.81 47.88-8.13L47.88-8.13L47.81-23.19L47.81-23.19Q46.81-23.69 44.13-23.69L44.13-23.69ZM87.44 0.81L87.44 0.81L87.44 0.81Q86.19 0.81 84.44 0.19L84.44 0.19L84.44 0.19Q82.69-0.44 81.50-1L81.50-1L80.44-1.69L80.13 0.13L78.94 0.13L78.81-8.63L79.88-8.50L79.88-8.50Q80.19-5.44 82.13-2.91L82.13-2.91L82.13-2.91Q84.06-0.38 87.44-0.38L87.44-0.38L87.44-0.38Q93.31-0.38 93.31-5.13L93.31-5.13L93.31-5.13Q93.31-8.56 85.88-11.25L85.88-11.25L85.88-11.25Q82.69-12.38 80.97-13.94L80.97-13.94L80.97-13.94Q79.25-15.50 79.25-18.19L79.25-18.19L79.25-18.19Q79.25-21.94 81.81-24.09L81.81-24.09L81.81-24.09Q84.38-26.25 88.56-26.25L88.56-26.25L88.56-26.25Q90.38-26.25 91.84-25.63L91.84-25.63L91.84-25.63Q93.31-25 93.88-24.44L93.88-24.44L94.44-23.81L94.63-25.69L95.81-25.69L95.69-17.81L94.56-17.81L94.56-17.81Q94.44-18.69 94.38-19.16L94.38-19.16L94.38-19.16Q94.31-19.63 94.06-20.72L94.06-20.72L94.06-20.72Q93.81-21.81 93.38-22.44L93.38-22.44L93.38-22.44Q92.94-23.06 92.25-23.78L92.25-23.78L92.25-23.78Q91.56-24.50 90.44-24.84L90.44-24.84L90.44-24.84Q89.31-25.19 87.94-25.19L87.94-25.19L87.94-25.19Q86-25.19 84.78-23.97L84.78-23.97L84.78-23.97Q83.56-22.75 83.56-20.88L83.56-20.88L83.56-20.88Q83.56-19.81 84.03-18.97L84.03-18.97L84.03-18.97Q84.50-18.13 85.34-17.53L85.34-17.53L85.34-17.53Q86.19-16.94 87-16.59L87-16.59L87-16.59Q87.81-16.25 89.06-15.81L89.06-15.81L89.06-15.81Q90.31-15.38 90.94-15.13L90.94-15.13L90.94-15.13Q97.81-12.06 97.81-7.63L97.81-7.63L97.81-7.63Q97.81-3.13 95.31-1.16L95.31-1.16L95.31-1.16Q92.81 0.81 87.44 0.81ZM103.75-23.69L103.75-24.69L103.75-24.69Q109.25-24.69 112.81-25.38L112.81-25.38L112.69-8.25L112.69-8.25Q112.81-1.06 116.06-1.06L116.06-1.06L116.06-1.06Q117.88-1.06 119.56-2.34L119.56-2.34L119.56-2.34Q121.25-3.63 122.31-5.13L122.31-5.13L122.31-5.13Q123.38-6.63 124-7.94L124-7.94L124.63-9.19L124.63-22.94L124.63-22.94Q123.44-23.69 120.94-23.69L120.94-23.69L120.94-24.69L120.94-24.69Q126.81-24.69 130.13-25.38L130.13-25.38L129.63-12.94L129.63-12.94Q129.63-11.56 129.63-9.81L129.63-9.81L129.69-1.75L129.69-1.75Q130.44-1.13 133.50-1L133.50-1L133.50-0.25L133.50-0.25Q128.75 0 124.94 0.94L124.94 0.94L124.50-5.88L123.75-4.88L123.75-4.88Q123-3.88 121.81-2.63L121.81-2.63L121.81-2.63Q120.63-1.38 118.81-0.34L118.81-0.34L118.81-0.34Q117 0.69 115.31 0.69L115.31 0.69L115.31 0.69Q111 0.69 109.25-1.56L109.25-1.56L109.25-1.56Q107.50-3.81 107.50-8.13L107.50-8.13L107.44-23.19L107.44-23.19Q106.44-23.69 103.75-23.69L103.75-23.69ZM155.44-1.13L155.44 0L155.44 0Q151.75-0.25 147.06-0.25L147.06-0.25L147.06-0.25Q142.38-0.25 139.31 0L139.31 0L139.31-1.13L139.31-1.13Q144.63-1.13 144.69-2.75L144.69-2.75L144.94-23.63L139.69-23.63L139.69-25L144.94-25L144.94-25Q144.94-25.69 144.94-26.38L144.94-26.38L144.94-26.38Q144.94-41.94 155.81-41.94L155.81-41.94L155.81-41.94Q158.69-41.94 161.69-40.44L161.69-40.44L161.69-40.44Q164.69-38.94 164.69-36.50L164.69-36.50L164.69-36.50Q164.69-34.88 163.81-33.53L163.81-33.53L163.81-33.53Q162.94-32.19 161.13-32.19L161.13-32.19L161.13-32.19Q159.88-32.19 159.06-33.16L159.06-33.16L159.06-33.16Q158.25-34.13 158.25-35.19L158.25-35.19L158.25-35.19Q158.25-36 158.81-36.75L158.81-36.75L158.81-36.75Q159.38-37.50 160-37.75L160-37.75L160.56-38.06L160.56-38.06Q160.50-39.63 159-40.28L159-40.28L159-40.28Q157.50-40.94 155.63-40.94L155.63-40.94L155.63-40.94Q152.88-40.94 151.44-38.81L151.44-38.81L151.44-38.81Q149.94-36.50 150-30.94L150-30.94L150-30.94Q150-28.31 150.06-27.13L150.06-27.13L150.06-27.13Q150.13-25.94 150.13-25L150.13-25L156.06-25L156.06-23.63L150.13-23.63L150.50-2.75L150.50-2.75Q150.56-1.94 151.50-1.50L151.50-1.50L151.50-1.50Q152.44-1.06 153.56-1.06L153.56-1.06L153.56-1.06Q154.19-1.06 155.44-1.13L155.44-1.13ZM187.50-36.44L187.50-36.44L187.50-36.44Q187.25-32.69 187.25-16.56L187.25-16.56L187.25-16.56Q187.25-14.56 187.28-11.25L187.28-11.25L187.28-11.25Q187.31-7.94 187.31-6.50L187.31-6.50L187.31-6.50Q187.31-0.69 186.69 2.84L186.69 2.84L186.69 2.84Q186.06 6.38 184.25 8.94L184.25 8.94L184.25 8.94Q181.06 13.38 175.06 13.38L175.06 13.38L175.06 13.38Q171 13.38 169 11.84L169 11.84L169 11.84Q167 10.31 167 8.19L167 8.19L167 8.19Q167 6.50 168.16 5.28L168.16 5.28L168.16 5.28Q169.31 4.06 171.06 4.06L171.06 4.06L171.06 4.06Q173 4.06 174.13 5.16L174.13 5.16L174.13 5.16Q175.25 6.25 175.25 7.88L175.25 7.88L175.25 7.88Q175.25 10.38 172.75 11.94L172.75 11.94L172.75 11.94Q173.56 12.38 174.91 12.41L174.91 12.41L174.91 12.41Q176.25 12.44 177.50 11.97L177.50 11.97L177.50 11.97Q178.75 11.50 179.25 10.75L179.25 10.75L179.25 10.75Q180.31 9 180.69 7.38L180.69 7.38L180.69 7.38Q181.06 5.75 181.31 1.69L181.31 1.69L181.31 1.69Q181.63-4.06 181.63-19.56L181.63-19.56L181.63-19.56Q181.63-34.63 181.38-36.56L181.38-36.56L181.38-36.56Q181.25-37.25 179-37.75L179-37.75L176.75-38.19L176.75-39.13L176.75-39.13Q179.69-38.88 184.25-38.88L184.25-38.88L184.25-38.88Q189-38.88 191.75-39.13L191.75-39.13L191.75-37.88L191.75-37.88Q191.06-37.88 190.31-37.78L190.31-37.78L190.31-37.78Q189.56-37.69 188.94-37.59L188.94-37.59L188.94-37.59Q188.31-37.50 187.94-37.19L187.94-37.19L187.94-37.19Q187.56-36.88 187.50-36.44ZM224.06-5.19L224.06-5.19L225-4.63L225-4.63Q224.19 0.44 219 0.44L219 0.44L219 0.44Q216.88 0.44 215.81-0.97L215.81-0.97L215.81-0.97Q214.75-2.38 214.56-4.31L214.56-4.31L214.56-4.31Q213.31-2.88 212.66-2.25L212.66-2.25L212.66-2.25Q212-1.63 210.19-0.53L210.19-0.53L210.19-0.53Q208.38 0.56 206.56 0.56L206.56 0.56L206.56 0.56Q203.44 0.56 201.19-1.19L201.19-1.19L201.19-1.19Q198.94-2.94 198.94-6.75L198.94-6.75L198.94-6.75Q198.94-8.44 199.66-9.69L199.66-9.69L199.66-9.69Q200.38-10.94 201.66-11.72L201.66-11.72L201.66-11.72Q202.94-12.50 204.25-13L204.25-13L204.25-13Q205.56-13.50 207.31-13.72L207.31-13.72L207.31-13.72Q209.06-13.94 210.22-14L210.22-14L210.22-14Q211.38-14.06 212.78-14.09L212.78-14.09L212.78-14.09Q214.19-14.13 214.31-14.13L214.31-14.13L214.31-14.13Q214.50-14.13 214.50-18.75L214.50-18.75L214.50-18.75Q214.50-24.69 209.06-24.69L209.06-24.69L209.06-24.69Q207.19-24.69 206.06-23.88L206.06-23.88L206.06-23.88Q204.94-23.06 204.69-21.94L204.69-21.94L204.69-21.94Q206.50-21.94 206.50-19.19L206.50-19.19L206.50-19.19Q206.50-17.50 205.38-16.78L205.38-16.78L205.38-16.78Q204.25-16.06 203.19-16.06L203.19-16.06L203.19-16.06Q202-16.06 201.06-17.16L201.06-17.16L201.06-17.16Q200.13-18.25 200.13-19.56L200.13-19.56L200.13-19.56Q200.13-21.88 203.06-24.06L203.06-24.06L203.06-24.06Q205.44-25.88 209.63-25.88L209.63-25.88L209.63-25.88Q213.56-25.88 216.63-23.44L216.63-23.44L216.63-23.44Q219.69-21 219.69-16.81L219.69-16.81L219.69-16.81Q219.69-14.75 219.56-11.06L219.56-11.06L219.56-11.06Q219.44-7.38 219.44-5.75L219.44-5.75L219.44-5.75Q219.44-1.56 221.38-1.63L221.38-1.63L221.38-1.63Q222.50-1.63 223.06-2.44L223.06-2.44L223.06-2.44Q223.63-3.25 224.06-5.19ZM214.31-5.88L214.31-5.88L214.31-13.25L214.31-13.25Q212.13-13.06 210.28-12.84L210.28-12.84L210.28-12.84Q208.44-12.63 207.13-12.16L207.13-12.16L207.13-12.16Q205.81-11.69 205.06-10.56L205.06-10.56L205.06-10.56Q204.31-9.44 204.31-7.44L204.31-7.44L204.31-7.44Q204.31-4.75 205.66-3.50L205.66-3.50L205.66-3.50Q207-2.25 209.06-2.25L209.06-2.25L209.06-2.25Q212.31-2.25 214.31-5.88ZM245.38-25.38L245.38-25.38L245.38-25.38Q251.81-25.38 253.25-19.31L253.25-19.31L253.25-19.31Q254.50-21.31 255.41-22.41L255.41-22.41L255.41-22.41Q256.31-23.50 257.88-24.44L257.88-24.44L257.88-24.44Q259.44-25.38 261.38-25.38L261.38-25.38L261.38-25.38Q269.63-25.38 269.63-15.44L269.63-15.44L269.63-2.63L269.63-2.63Q269.63-1.81 270.38-1.47L270.38-1.47L270.38-1.47Q271.13-1.13 272.34-1.09L272.34-1.09L272.34-1.09Q273.56-1.06 273.81-1L273.81-1L273.81 0L273.81 0Q272-0.19 268-0.19L268-0.19L268-0.19Q263.69-0.19 260.38 0L260.38 0L260.38-1L260.38-1Q264.50-1.38 264.50-2.31L264.50-2.31L264.50-2.31Q264.56-2.31 264.56-16.56L264.56-16.56L264.56-16.56Q264.56-20 263.63-21.50L263.63-21.50L263.63-21.50Q262.69-23 260.25-23L260.25-23L260.25-23Q258.50-23 256.88-21.81L256.88-21.81L256.88-21.81Q255.25-20.63 254.50-19.44L254.50-19.44L253.75-18.25L253.75-2.31L253.75-2.31Q253.75-1.81 255.25-1.44L255.25-1.44L255.25-1.44Q256.75-1.06 258.06-1L258.06-1L258.06 0L258.06 0Q255.44-0.19 251.25-0.19L251.25-0.19L251.25-0.19Q246.69-0.19 244 0L244 0L244-1L244-1Q248.13-1.19 248.13-2.31L248.13-2.31L248.13-16.63L248.13-16.63Q248.13-20.13 247.38-21.56L247.38-21.56L247.38-21.56Q246.63-23 244.25-23L244.25-23L244.25-23Q242.69-23 240.66-21.22L240.66-21.22L240.66-21.22Q238.63-19.44 237.75-16.94L237.75-16.94L237.75-2.31L237.75-2.31Q237.75-1.19 242.06-1L242.06-1L242.06 0L242.06 0Q238.56-0.19 234.56-0.19L234.56-0.19L234.56-0.19Q231-0.19 228.75 0L228.75 0L228.75-1L228.75-1Q229.75-0.94 231.25-1.16L231.25-1.16L231.25-1.16Q232.75-1.38 232.75-2.31L232.75-2.31L232.75-2.31Q232.94-10.63 232.94-15.31L232.94-15.31L232.94-15.31Q232.94-20.50 232.75-23.31L232.75-23.31L232.75-23.31Q232.69-24 230.44-24L230.44-24L230.44-24Q229.63-24 228.75-23.94L228.75-23.94L228.75-24.94L228.75-24.94Q229.44-24.88 230.19-24.88L230.19-24.88L230.19-24.88Q234.06-24.88 237.19-26.19L237.19-26.19L238-19.50L238-19.50Q238.56-20.31 239.06-21.13L239.06-21.13L239.06-21.13Q239.56-21.94 240.25-22.72L240.25-22.72L240.25-22.72Q240.94-23.50 241.66-24.06L241.66-24.06L241.66-24.06Q242.38-24.63 243.34-25L243.34-25L243.34-25Q244.31-25.38 245.38-25.38ZM304.06-5.19L304.06-5.19L305-4.63L305-4.63Q304.19 0.44 299 0.44L299 0.44L299 0.44Q296.88 0.44 295.81-0.97L295.81-0.97L295.81-0.97Q294.75-2.38 294.56-4.31L294.56-4.31L294.56-4.31Q293.31-2.88 292.66-2.25L292.66-2.25L292.66-2.25Q292-1.63 290.19-0.53L290.19-0.53L290.19-0.53Q288.38 0.56 286.56 0.56L286.56 0.56L286.56 0.56Q283.44 0.56 281.19-1.19L281.19-1.19L281.19-1.19Q278.94-2.94 278.94-6.75L278.94-6.75L278.94-6.75Q278.94-8.44 279.66-9.69L279.66-9.69L279.66-9.69Q280.38-10.94 281.66-11.72L281.66-11.72L281.66-11.72Q282.94-12.50 284.25-13L284.25-13L284.25-13Q285.56-13.50 287.31-13.72L287.31-13.72L287.31-13.72Q289.06-13.94 290.22-14L290.22-14L290.22-14Q291.38-14.06 292.78-14.09L292.78-14.09L292.78-14.09Q294.19-14.13 294.31-14.13L294.31-14.13L294.31-14.13Q294.50-14.13 294.50-18.75L294.50-18.75L294.50-18.75Q294.50-24.69 289.06-24.69L289.06-24.69L289.06-24.69Q287.19-24.69 286.06-23.88L286.06-23.88L286.06-23.88Q284.94-23.06 284.69-21.94L284.69-21.94L284.69-21.94Q286.50-21.94 286.50-19.19L286.50-19.19L286.50-19.19Q286.50-17.50 285.38-16.78L285.38-16.78L285.38-16.78Q284.25-16.06 283.19-16.06L283.19-16.06L283.19-16.06Q282-16.06 281.06-17.16L281.06-17.16L281.06-17.16Q280.13-18.25 280.13-19.56L280.13-19.56L280.13-19.56Q280.13-21.88 283.06-24.06L283.06-24.06L283.06-24.06Q285.44-25.88 289.63-25.88L289.63-25.88L289.63-25.88Q293.56-25.88 296.63-23.44L296.63-23.44L296.63-23.44Q299.69-21 299.69-16.81L299.69-16.81L299.69-16.81Q299.69-14.75 299.56-11.06L299.56-11.06L299.56-11.06Q299.44-7.38 299.44-5.75L299.44-5.75L299.44-5.75Q299.44-1.56 301.38-1.63L301.38-1.63L301.38-1.63Q302.50-1.63 303.06-2.44L303.06-2.44L303.06-2.44Q303.63-3.25 304.06-5.19ZM294.31-5.88L294.31-5.88L294.31-13.25L294.31-13.25Q292.13-13.06 290.28-12.84L290.28-12.84L290.28-12.84Q288.44-12.63 287.13-12.16L287.13-12.16L287.13-12.16Q285.81-11.69 285.06-10.56L285.06-10.56L285.06-10.56Q284.31-9.44 284.31-7.44L284.31-7.44L284.31-7.44Q284.31-4.75 285.66-3.50L285.66-3.50L285.66-3.50Q287-2.25 289.06-2.25L289.06-2.25L289.06-2.25Q292.31-2.25 294.31-5.88ZM317.13-41.06L317.13-41.06L317.13-41.06Q316.88-35.06 316.81-27.56L316.81-27.56L316.81-27.56Q316.81-24.56 316.91-16.34L316.91-16.34L316.91-16.34Q317-8.13 317-2.31L317-2.31L317-2.31Q317.13-1.69 318.69-1.38L318.69-1.38L318.69-1.38Q320.25-1.06 321.31-1L321.31-1L321.31 0L321.31 0Q318.56-0.31 314.75-0.31L314.75-0.31L314.75-0.31Q310.31-0.31 307.50 0L307.50 0L307.50-1L307.50-1Q311.63-1.19 311.75-2.31L311.75-2.31L311.75-2.31Q311.94-8.25 311.94-18.75L311.94-18.75L311.94-18.75Q311.94-29.94 311.75-37.38L311.75-37.38L311.75-37.38Q310.19-38.63 307.50-38.63L307.50-38.63L307.50-39.69L307.50-39.69Q310.81-39.88 317.13-41.06Z" fill="#ccc"></path></g></g><style>text {
  font-size: 64px;
  font-family: Arial Black;
  dominant-baseline: central;
  text-anchor: middle;
}</style></svg>