<svg width="696.70625px" height="183.2px" xmlns="http://www.w3.org/2000/svg" viewBox="-98.35312499999998 -16.599999999999994 696.70625 183.2" style="background: rgb(253, 253, 253);" preserveAspectRatio="xMidYMid"><defs><filter id="editing-hole" x="-100%" y="-100%" width="300%" height="300%"><feFlood flood-color="#bbcedd" result="black"></feFlood><feMorphology operator="dilate" radius="2" in="SourceGraphic" result="erode"></feMorphology><feGaussianBlur in="erode" stdDeviation="4" result="blur"></feGaussianBlur><feOffset in="blur" dx="2" dy="2" result="offset"></feOffset><feComposite operator="atop" in="offset" in2="black" result="merge"></feComposite><feComposite operator="in" in="merge" in2="SourceGraphic" result="inner-shadow"></feComposite></filter></defs><g filter="url(#editing-hole)"><g transform="translate(5.750279128551483, 112.73500061035156)"><path d="M16.08-11.30L16.08-18.05L16.13-27.84L16.13-33.19L16.13-33.19Q16.13-37.41 12.66-45.19L12.66-45.19L12.66-45.19Q9.98-51.05 9.05-52.92L9.05-52.92L7.50-56.02L7.50-56.02Q1.45-68.67-3.09-71.72L-3.09-71.72L15.80-71.72L15.80-71.72Q15.47-70.78 15.47-69.33L15.47-69.33L15.47-69.33Q15.47-67.88 15.70-66.26L15.70-66.26L15.70-66.26Q15.94-64.64 16.31-62.95L16.31-62.95L16.31-62.95Q17.02-59.72 18.14-57L18.14-57L20.39-51.56L20.39-51.56Q21.56-48.84 23.30-46.03L23.30-46.03L23.30-46.03Q25.50-49.36 26.81-52.55L26.81-52.55L28.59-56.95L28.59-56.95Q31.27-63.75 31.27-69.89L31.27-69.89L31.27-69.89Q31.27-70.92 31.13-71.72L31.13-71.72L44.02-71.72L44.02-71.72Q41.44-69 38.63-63.80L38.63-63.80L38.63-63.80Q35.81-58.59 34.69-56.25L34.69-56.25L32.30-51.05L32.30-51.05Q27.42-40.27 27.42-33.80L27.42-33.80L27.42-12.38L27.42-12.38Q27.42-7.59 28.55-5.48L28.55-5.48L28.55-5.48Q29.67-3.38 30.94-2.20L30.94-2.20L30.94-2.20Q32.20-1.03 33.98 0L33.98 0L10.03 0L10.03 0Q16.08-3.09 16.08-11.30L16.08-11.30ZM84.05-45.19L84.05-42.94L83.34-21.98L83.34-21.98Q83.34-9.19 85.59-4.41L85.59-4.41L85.59-4.41Q86.39-2.67 88.41 0L88.41 0L75.38 0L75.38 0Q74.30-3.19 73.97-8.06L73.97-8.06L73.97-8.06Q68.53 0.94 59.95 0.94L59.95 0.94L59.95 0.94Q54.05 0.94 50.91-3.47L50.91-3.47L50.91-3.47Q47.81-7.73 47.81-15.19L47.81-15.19L47.81-21.52L47.81-21.52Q47.81-23.63 47.81-25.83L47.81-25.83L47.72-30.09L47.72-30.09Q47.67-34.17 47.46-36.45L47.46-36.45L47.46-36.45Q47.25-38.72 46.99-40.24L46.99-40.24L46.99-40.24Q46.73-41.77 46.36-42.96L46.36-42.96L46.36-42.96Q45.98-44.16 45.52-45.19L45.52-45.19L44.48-47.34L58.03-47.34L58.03-47.34Q58.08-46.59 58.08-45.94L58.08-45.94L58.08-44.58L58.08-44.58Q58.08-44.58 57.28-21.05L57.28-21.05L57.28-21.05Q57.28-14.16 58.17-11.67L58.17-11.67L58.17-11.67Q59.06-9.19 60.30-8.11L60.30-8.11L60.30-8.11Q61.55-7.03 63.61-7.03L63.61-7.03L63.61-7.03Q69.19-7.03 72.66-13.13L72.66-13.13L72.66-13.13Q73.59-14.86 74.20-16.64L74.20-16.64L74.20-16.64Q74.30-19.27 74.30-22.59L74.30-22.59L74.30-22.59Q74.30-39.70 71.77-45.19L71.77-45.19L70.73-47.34L84.09-47.34L84.09-47.34Q84.05-46.17 84.05-45.19L84.05-45.19ZM127.31-50.11L127.31-50.11L127.31-50.11Q128.58-47.30 128.58-44.44L128.58-44.44L128.58-44.44Q128.58-41.58 128.32-39.70L128.32-39.70L128.32-39.70Q128.06-37.83 127.55-36.09L127.55-36.09L127.55-36.09Q126.38-32.16 124.22-30.05L124.22-30.05L124.22-30.05Q122.77-37.31 121.05-39.47L121.05-39.47L121.05-39.47Q119.34-41.63 117.63-42.38L117.63-42.38L117.63-42.38Q115.92-43.13 114-43.13L114-43.13L114-43.13Q112.08-43.13 110.86-42.75L110.86-42.75L110.86-42.75Q109.64-42.38 108.75-41.67L108.75-41.67L108.75-41.67Q106.73-40.13 106.73-38.16L106.73-38.16L106.73-38.16Q106.73-36.19 107.72-34.76L107.72-34.76L107.72-34.76Q108.70-33.33 110.32-32.09L110.32-32.09L110.32-32.09Q111.94-30.84 114-29.67L114-29.67L118.22-27.28L118.22-27.28Q123.66-24.23 125.67-22.22L125.67-22.22L125.67-22.22Q129.66-18.23 129.66-13.83L129.66-13.83L129.66-13.83Q129.66-8.06 125.72-4.13L125.72-4.13L125.72-4.13Q120.75 0.94 110.81 0.94L110.81 0.94L110.81 0.94Q101.77 0.94 97.22-3.28L97.22-3.28L97.22-3.28Q95.91-4.50 95.34-5.72L95.34-5.72L95.34-5.72Q95.72-9.23 98.48-12.33L98.48-12.33L98.48-12.33Q101.16-15.33 103.69-15.80L103.69-15.80L103.69-15.80Q103.50-15.19 103.50-13.97L103.50-13.97L103.50-13.97Q103.50-12.75 104.20-10.95L104.20-10.95L104.20-10.95Q104.91-9.14 106.22-7.59L106.22-7.59L106.22-7.59Q109.17-4.03 112.88-4.03L112.88-4.03L112.88-4.03Q116.58-4.03 118.31-5.72L118.31-5.72L118.31-5.72Q120.05-7.41 120.05-9.56L120.05-9.56L120.05-9.56Q120.05-11.72 119.06-13.17L119.06-13.17L119.06-13.17Q118.08-14.63 116.46-15.89L116.46-15.89L116.46-15.89Q114.84-17.16 112.78-18.33L112.78-18.33L108.56-20.72L108.56-20.72Q103.17-23.91 101.16-26.16L101.16-26.16L101.16-26.16Q97.13-30.66 97.13-35.95L97.13-35.95L97.13-35.95Q97.13-41.53 101.81-45L101.81-45L101.81-45Q106.27-48.28 112.92-48.28L112.92-48.28L121.17-47.72L121.17-47.72Q124.17-47.72 125.34-48.45L125.34-48.45L125.34-48.45Q126.52-49.17 127.31-50.11ZM178.55-45.19L178.55-42.94L177.84-21.98L177.84-21.98Q177.84-9.19 180.09-4.41L180.09-4.41L180.09-4.41Q180.89-2.67 182.91 0L182.91 0L169.88 0L169.88 0Q168.80-3.19 168.47-8.06L168.47-8.06L168.47-8.06Q163.03 0.94 154.45 0.94L154.45 0.94L154.45 0.94Q148.55 0.94 145.41-3.47L145.41-3.47L145.41-3.47Q142.31-7.73 142.31-15.19L142.31-15.19L142.31-21.52L142.31-21.52Q142.31-23.63 142.31-25.83L142.31-25.83L142.22-30.09L142.22-30.09Q142.17-34.17 141.96-36.45L141.96-36.45L141.96-36.45Q141.75-38.72 141.49-40.24L141.49-40.24L141.49-40.24Q141.23-41.77 140.86-42.96L140.86-42.96L140.86-42.96Q140.48-44.16 140.02-45.19L140.02-45.19L138.98-47.34L152.53-47.34L152.53-47.34Q152.58-46.59 152.58-45.94L152.58-45.94L152.58-44.58L152.58-44.58Q152.58-44.58 151.78-21.05L151.78-21.05L151.78-21.05Q151.78-14.16 152.67-11.67L152.67-11.67L152.67-11.67Q153.56-9.19 154.80-8.11L154.80-8.11L154.80-8.11Q156.05-7.03 158.11-7.03L158.11-7.03L158.11-7.03Q163.69-7.03 167.16-13.13L167.16-13.13L167.16-13.13Q168.09-14.86 168.70-16.64L168.70-16.64L168.70-16.64Q168.80-19.27 168.80-22.59L168.80-22.59L168.80-22.59Q168.80-39.70 166.27-45.19L166.27-45.19L165.23-47.34L178.59-47.34L178.59-47.34Q178.55-46.17 178.55-45.19L178.55-45.19ZM210.70 0L193.59 0L193.59 0Q195.80-7.55 195.80-30.47L195.80-30.47L195.80-30.47Q195.80-34.50 195.70-35.70L195.70-35.70L195.70-35.70Q195.61-36.89 194.86-37.03L194.86-37.03L194.86-37.03Q191.77-37.73 191.16-40.59L191.16-40.59L191.16-40.59Q191.02-41.34 190.78-42.19L190.78-42.19L193.78-42.19L193.78-42.19Q195.09-42.19 195.40-42.77L195.40-42.77L195.40-42.77Q195.70-43.36 195.70-46.08L195.70-46.08L195.70-46.08Q195.70-51.38 195.30-56.48L195.30-56.48L195.30-56.48Q194.91-61.59 195.70-64.22L195.70-64.22L195.70-64.22Q196.50-66.84 198.19-68.72L198.19-68.72L198.19-68.72Q201.75-72.66 208.27-72.66L208.27-72.66L208.27-72.66Q210.70-72.66 212.72-72.19L212.72-72.19L212.72-72.19Q214.73-71.72 216.61-71.72L216.61-71.72L216.61-71.72Q218.48-71.72 219.89-72.23L219.89-72.23L219.89-72.23Q221.30-72.75 222.38-74.53L222.38-74.53L222.38-74.53Q222.98-73.83 223.50-72.02L223.50-72.02L223.50-72.02Q224.02-70.22 224.02-68.09L224.02-68.09L224.02-68.09Q224.02-65.95 223.71-63.59L223.71-63.59L223.71-63.59Q223.41-61.22 222.84-58.97L222.84-58.97L222.84-58.97Q221.67-54.28 219.56-51.52L219.56-51.52L219.56-51.52Q218.44-61.08 217.48-63.42L217.48-63.42L217.48-63.42Q216.52-65.77 215.37-66.63L215.37-66.63L215.37-66.63Q214.22-67.50 211.97-67.50L211.97-67.50L211.97-67.50Q209.72-67.50 207.96-65.13L207.96-65.13L207.96-65.13Q206.20-62.77 206.20-58.64L206.20-58.64L206.20-57.14L206.20-57.14Q206.20-47.77 206.72-45.82L206.72-45.82L206.72-45.82Q207.23-43.88 208.13-43.27L208.13-43.27L208.13-43.27Q209.02-42.66 210.66-42.66L210.66-42.66L219.28-42.66L219.28-42.66Q218.11-38.44 216.38-37.22L216.38-37.22L216.38-37.22Q215.53-36.56 214.48-36.56L214.48-36.56L214.48-36.56Q213.42-36.56 212.81-36.70L212.81-36.70L212.81-36.70Q212.20-36.84 211.64-37.03L211.64-37.03L211.64-37.03Q210.23-37.50 209.09-37.50L209.09-37.50L209.09-37.50Q207.94-37.50 207.33-37.20L207.33-37.20L207.33-37.20Q206.72-36.89 206.34-36.33L206.34-36.33L206.34-36.33Q205.78-35.39 205.78-33.33L205.78-33.33L205.78-25.31L205.78-25.31Q205.78-10.73 206.81-7.08L206.81-7.08L206.81-7.08Q207.56-4.36 208.73-2.77L208.73-2.77L210.70 0ZM287.95-37.88L287.95-37.88L288-20.16L288-20.16Q288-11.67 283.73-5.81L283.73-5.81L283.73-5.81Q278.72 0.94 269.77 0.94L269.77 0.94L269.77 0.94Q262.73 0.94 258.52-3.75L258.52-3.75L258.52-3.75Q254.67-8.02 254.67-14.06L254.67-14.06L254.67-14.06Q256.78-18.94 259.17-21.52L259.17-21.52L259.17-21.52Q263.11-25.78 265.73-26.25L265.73-26.25L265.73-26.25Q264.98-21.98 264.98-18.42L264.98-18.42L264.98-18.42Q264.98-14.86 265.29-12.40L265.29-12.40L265.29-12.40Q265.59-9.94 266.30-8.02L266.30-8.02L266.30-8.02Q267.84-3.75 271.17-3.75L271.17-3.75L271.17-3.75Q274.08-3.75 275.58-7.50L275.58-7.50L275.58-7.50Q276.84-10.59 276.84-15.80L276.84-15.80L276.84-27.05L276.84-27.05Q276.84-47.39 276.56-61.31L276.56-61.31L276.56-61.31Q276.47-65.02 275.46-67.43L275.46-67.43L275.46-67.43Q274.45-69.84 272.06-71.72L272.06-71.72L290.58-71.72L290.58-71.72Q289.17-69.19 288.87-66.28L288.87-66.28L288.87-66.28Q288.56-63.38 288.33-59.91L288.33-59.91L288.33-59.91Q287.95-53.30 287.95-37.88ZM334.45-25.03L334.45-25.03L334.31-16.03L334.31-16.03Q334.31-7.64 335.86-4.59L335.86-4.59L335.86-4.59Q336.80-2.77 338.06-1.78L338.06-1.78L340.27 0L326.67 0L325.22-5.44L325.22-5.44Q319.92 0.94 310.13 0.94L310.13 0.94L310.13 0.94Q304.55 0.94 301.13-2.81L301.13-2.81L301.13-2.81Q298.13-6.19 298.13-10.78L298.13-10.78L298.13-10.78Q298.13-15.38 300.30-18.80L300.30-18.80L300.30-18.80Q302.48-22.22 306.05-24.47L306.05-24.47L306.05-24.47Q313.08-28.83 323.72-29.02L323.72-29.02L323.72-29.53L323.72-29.53Q323.72-40.92 320.20-42.89L320.20-42.89L320.20-42.89Q318.94-43.59 316.95-43.59L316.95-43.59L316.95-43.59Q314.95-43.59 312.98-42.28L312.98-42.28L312.98-42.28Q311.02-40.97 309.42-38.91L309.42-38.91L309.42-38.91Q306.23-34.73 304.88-29.06L304.88-29.06L304.88-29.06Q300.70-31.55 300.70-38.58L300.70-38.58L300.70-38.58Q300.70-41.44 301.45-45L301.45-45L301.45-45Q303.23-45 304.83-45.52L304.83-45.52L308.44-46.64L308.44-46.64Q313.73-48.28 318.80-48.28L318.80-48.28L318.80-48.28Q323.86-48.28 326.88-46.78L326.88-46.78L326.88-46.78Q329.91-45.28 331.59-42.33L331.59-42.33L331.59-42.33Q334.45-37.31 334.45-25.03ZM308.25-9.84L308.25-9.84Q308.25-6.94 309.59-5.34L309.59-5.34L309.59-5.34Q310.92-3.75 312.94-3.75L312.94-3.75L312.94-3.75Q314.95-3.75 316.83-4.80L316.83-4.80L316.83-4.80Q318.70-5.86 320.20-7.69L320.20-7.69L320.20-7.69Q323.72-11.86 323.72-17.48L323.72-17.48L323.72-24.42L323.72-24.42Q317.16-23.81 312.89-20.06L312.89-20.06L312.89-20.06Q308.25-16.03 308.25-9.84L308.25-9.84ZM362.34 0L348.89 0L348.89 0Q351.05-7.41 351.05-25.45L351.05-25.45L351.05-25.45Q351.05-38.30 348.80-42.98L348.80-42.98L348.80-42.98Q348.23-44.16 347.53-45.19L347.53-45.19L345.98-47.34L362.25-47.34L362.25-47.34Q361.55-44.58 361.31-42.94L361.31-42.94L360.98-40.13L360.98-40.13Q366.42-48.28 374.84-48.28L374.84-48.28L374.84-48.28Q383.25-48.28 385.73-39.14L385.73-39.14L385.73-39.14Q389.44-45.47 395.53-47.53L395.53-47.53L395.53-47.53Q397.69-48.28 400.38-48.28L400.38-48.28L400.38-48.28Q403.08-48.28 405.26-47.13L405.26-47.13L405.26-47.13Q407.44-45.98 408.94-43.88L408.94-43.88L408.94-43.88Q411.89-39.61 411.89-32.20L411.89-32.20L411.89-27.19L411.89-27.19Q411.89-12.84 412.29-9.21L412.29-9.21L412.29-9.21Q412.69-5.58 412.88-4.41L412.88-4.41L412.88-4.41Q413.16-2.34 413.81 0L413.81 0L399.98 0L399.98 0Q402.05-7.08 402.05-25.45L402.05-25.45L402.05-25.45Q402.05-32.91 401.30-35.46L401.30-35.46L401.30-35.46Q400.55-38.02 399.35-39.16L399.35-39.16L399.35-39.16Q398.16-40.31 396.09-40.31L396.09-40.31L396.09-40.31Q390.05-40.31 386.48-33.19L386.48-33.19L386.48-27.19L386.48-27.19Q386.48-12.84 386.88-9.21L386.88-9.21L386.88-9.21Q387.28-5.58 387.47-4.41L387.47-4.41L387.47-4.41Q387.75-2.34 388.41 0L388.41 0L374.58 0L374.58 0Q376.69-7.22 376.69-25.45L376.69-25.45L376.69-25.45Q376.69-33.09 375.94-35.55L375.94-35.55L375.94-35.55Q375.19-38.02 374.02-39.16L374.02-39.16L374.02-39.16Q372.84-40.31 370.80-40.31L370.80-40.31L370.80-40.31Q368.77-40.31 367.13-39.52L367.13-39.52L367.13-39.52Q365.48-38.72 364.17-37.41L364.17-37.41L364.17-37.41Q361.69-34.97 360.28-31.13L360.28-31.13L360.28-31.13Q360.19-29.77 360.19-28.31L360.19-28.31L360.19-25.45L360.19-25.45Q360.19-7.41 362.34 0L362.34 0ZM384.75-28.22L384.94-29.06L384.75-28.22ZM460.08-25.03L460.08-25.03L459.94-16.03L459.94-16.03Q459.94-7.64 461.48-4.59L461.48-4.59L461.48-4.59Q462.42-2.77 463.69-1.78L463.69-1.78L465.89 0L452.30 0L450.84-5.44L450.84-5.44Q445.55 0.94 435.75 0.94L435.75 0.94L435.75 0.94Q430.17 0.94 426.75-2.81L426.75-2.81L426.75-2.81Q423.75-6.19 423.75-10.78L423.75-10.78L423.75-10.78Q423.75-15.38 425.93-18.80L425.93-18.80L425.93-18.80Q428.11-22.22 431.67-24.47L431.67-24.47L431.67-24.47Q438.70-28.83 449.34-29.02L449.34-29.02L449.34-29.53L449.34-29.53Q449.34-40.92 445.83-42.89L445.83-42.89L445.83-42.89Q444.56-43.59 442.57-43.59L442.57-43.59L442.57-43.59Q440.58-43.59 438.61-42.28L438.61-42.28L438.61-42.28Q436.64-40.97 435.05-38.91L435.05-38.91L435.05-38.91Q431.86-34.73 430.50-29.06L430.50-29.06L430.50-29.06Q426.33-31.55 426.33-38.58L426.33-38.58L426.33-38.58Q426.33-41.44 427.08-45L427.08-45L427.08-45Q428.86-45 430.45-45.52L430.45-45.52L434.06-46.64L434.06-46.64Q439.36-48.28 444.42-48.28L444.42-48.28L444.42-48.28Q449.48-48.28 452.51-46.78L452.51-46.78L452.51-46.78Q455.53-45.28 457.22-42.33L457.22-42.33L457.22-42.33Q460.08-37.31 460.08-25.03ZM433.88-9.84L433.88-9.84Q433.88-6.94 435.21-5.34L435.21-5.34L435.21-5.34Q436.55-3.75 438.56-3.75L438.56-3.75L438.56-3.75Q440.58-3.75 442.45-4.80L442.45-4.80L442.45-4.80Q444.33-5.86 445.83-7.69L445.83-7.69L445.83-7.69Q449.34-11.86 449.34-17.48L449.34-17.48L449.34-24.42L449.34-24.42Q442.78-23.81 438.52-20.06L438.52-20.06L438.52-20.06Q433.88-16.03 433.88-9.84L433.88-9.84ZM485.91-33.75L485.86-21.47L485.86-21.47Q485.86-6.28 487.69 0L487.69 0L473.86 0L473.86 0Q475.17-4.55 475.50-10.73L475.50-10.73L475.50-10.73Q476.20-25.69 476.20-33.94L476.20-33.94L476.20-33.94Q476.20-42.19 476.16-45.02L476.16-45.02L476.16-45.02Q476.11-47.86 476.06-50.72L476.06-50.72L476.06-50.72Q475.78-60.89 475.10-63.54L475.10-63.54L475.10-63.54Q474.42-66.19 473.84-67.38L473.84-67.38L473.84-67.38Q473.25-68.58 472.50-69.56L472.50-69.56L470.95-71.72L488.06-71.72L488.06-71.72Q486.75-66.98 486.54-62.65L486.54-62.65L486.54-62.65Q486.33-58.31 486.21-54.98L486.21-54.98L486.21-54.98Q486.09-51.66 486-48.05L486-48.05L486-48.05Q485.91-42.05 485.91-33.75L485.91-33.75Z" fill="#85a2b6"></path></g></g><style>text {
  font-size: 64px;
  font-family: Arial Black;
  dominant-baseline: central;
  text-anchor: middle;
}</style></svg>